<svg version="1.0" xmlns="http://www.w3.org/2000/svg"
 width="10px" height="10px" viewBox="50 70 650 650"
 preserveAspectRatio="xMidYMid meet" draggable="false" >

<g transform="translate(0.000000,800.000000) scale(0.100000,-0.100000)"
fill="#FFFFFF" stroke="none" draggable="false" >
<path d="M3688 6740 c-458 -75 -906 -266 -1273 -543 -107 -81 -337 -307 -443
-435 -242 -294 -437 -664 -537 -1022 -79 -283 -110 -534 -102 -825 13 -447 99
-788 298 -1188 210 -421 568 -830 945 -1079 498 -329 1140 -504 1684 -458 381
32 679 114 1015 279 285 141 480 279 714 506 387 376 651 831 771 1330 67 278
74 343 74 675 0 274 -2 318 -22 430 -104 572 -315 1010 -692 1435 -84 95 -109
120 -97 98 30 -54 73 -162 89 -222 24 -91 29 -304 9 -361 -12 -33 -11 -38 30
-105 161 -265 278 -608 330 -970 19 -133 17 -482 -5 -630 -78 -540 -302 -1008
-664 -1387 -59 -61 -147 -145 -197 -186 -290 -243 -682 -431 -1068 -514 -131
-28 -161 -31 -395 -35 -358 -7 -517 16 -827 118 -339 113 -656 310 -914 568
-382 382 -617 850 -707 1406 -14 85 -18 169 -18 370 0 279 13 391 70 615 67
260 184 522 331 745 108 162 156 222 276 344 355 361 804 597 1337 703 103 21
143 23 380 23 212 -1 285 -4 365 -19 111 -20 281 -63 393 -99 l73 -24 97 33
c174 59 307 67 458 29 54 -14 101 -25 104 -25 9 0 -110 69 -214 125 -255 136
-522 229 -821 287 -94 18 -155 21 -420 24 -267 3 -326 0 -427 -16z"/>
<path d="M5178 6154 c-64 -15 -146 -54 -196 -92 l-32 -25 25 -13 c14 -7 63
-24 109 -38 182 -56 391 -192 500 -324 32 -40 62 -70 66 -67 19 12 51 123 57
196 4 59 1 99 -13 160 -17 75 -22 85 -59 112 -122 90 -310 127 -457 91z"/>
<path d="M4807 5888 c-65 -86 -97 -189 -102 -321 -4 -110 -11 -98 80 -127 166
-54 408 -75 529 -46 73 17 229 87 242 107 11 18 -172 190 -271 255 -46 30 -86
54 -89 54 -3 0 -29 11 -58 24 -72 33 -134 54 -193 67 -112 24 -110 24 -138
-13z"/>
<path d="M5828 5845 c11 -98 -38 -273 -95 -337 -13 -14 -10 -24 25 -90 22 -40
50 -102 63 -137 l23 -64 18 23 c10 12 32 65 49 118 56 169 42 319 -42 468 -40
70 -48 74 -41 19z"/>
<path d="M2800 5645 c-201 -55 -358 -200 -425 -392 -20 -56 -25 -87 -25 -181
0 -103 4 -128 51 -310 45 -175 50 -205 46 -270 -8 -104 -45 -174 -156 -297
-49 -55 -102 -121 -115 -146 -27 -48 -62 -167 -52 -176 3 -3 25 10 49 30 24
20 104 69 178 111 154 85 211 130 265 203 94 129 101 233 34 493 -37 142 -43
180 -44 275 -1 107 0 112 36 188 84 175 238 266 450 267 77 0 128 -11 128 -29
0 -5 -30 -26 -67 -47 -92 -51 -186 -146 -223 -226 -63 -135 -60 -237 11 -468
41 -129 42 -141 43 -270 1 -133 1 -136 -32 -202 -20 -42 -56 -91 -95 -131 -62
-63 -79 -73 -362 -230 -56 -31 -124 -75 -153 -99 -70 -56 -146 -156 -173 -226
-26 -70 -37 -212 -20 -268 20 -66 44 -115 54 -111 5 1 17 26 27 55 49 139 163
283 289 366 36 24 135 80 220 125 189 100 259 149 345 242 108 117 166 260
166 408 -1 67 -24 173 -75 341 -37 120 -39 131 -39 275 -1 134 1 156 22 206
25 62 89 142 131 163 14 8 40 16 56 17 28 4 30 2 29 -26 -1 -16 -14 -61 -29
-100 -36 -93 -45 -230 -20 -324 42 -162 166 -320 299 -382 37 -17 70 -37 72
-43 2 -6 0 -98 -5 -204 -7 -161 -11 -195 -26 -211 -18 -21 -93 -41 -153 -41
-36 0 -38 -2 -81 -85 -54 -103 -134 -200 -227 -277 -78 -63 -121 -89 -319
-196 -182 -97 -229 -129 -306 -207 -69 -69 -127 -157 -161 -244 -17 -44 -22
-78 -22 -161 -1 -165 28 -210 272 -428 312 -280 472 -389 704 -481 90 -36 273
-85 393 -106 131 -23 370 -30 506 -16 189 21 429 79 429 104 0 7 -16 57 -36
112 -76 210 -99 425 -70 660 19 161 47 259 138 484 39 97 81 208 93 246 l23
70 564 10 c451 8 568 13 588 24 58 33 91 66 116 117 23 48 26 63 22 122 -3 37
-64 306 -136 597 -72 292 -134 547 -138 568 -7 42 -12 44 -41 20 -12 -10 -40
-29 -63 -43 -85 -51 -81 -41 -71 -170 6 -63 18 -287 27 -498 15 -332 16 -385
3 -393 -17 -11 -10 -12 -494 71 -594 102 -712 119 -753 106 -17 -6 -20 -19
-26 -99 -45 -600 -334 -1144 -791 -1483 -167 -124 -177 -135 -246 -254 -63
-110 -99 -160 -117 -160 -22 0 -462 773 -462 812 0 8 30 50 66 94 124 150 378
433 392 439 25 9 44 -17 103 -140 67 -142 103 -238 134 -360 14 -57 28 -91 37
-93 21 -4 240 226 331 346 166 221 283 475 351 761 15 62 25 119 22 127 -4 10
-25 14 -76 14 -39 0 -80 4 -90 10 -36 19 -51 88 -58 260 -4 89 -4 167 0 173 4
7 31 7 90 -1 126 -18 181 -16 212 9 42 33 48 55 57 193 l9 130 42 43 42 43
-56 58 c-82 82 -91 110 -90 266 1 109 -2 135 -19 167 -35 69 -164 150 -294
184 -69 18 -211 20 -287 4 -77 -16 -185 -69 -250 -122 -31 -26 -61 -47 -66
-47 -6 0 -27 22 -46 49 -43 58 -136 145 -179 167 -109 57 -297 79 -407 49z"/>
<path d="M5580 5366 c-110 -82 -324 -125 -527 -106 -65 6 -125 13 -133 16 -8
3 -44 11 -80 19 -36 8 -74 17 -84 21 -16 6 -14 -2 14 -54 138 -260 428 -380
715 -297 105 31 178 64 224 102 l34 29 -22 84 c-19 77 -78 220 -91 220 -3 0
-25 -16 -50 -34z"/>
<path d="M5070 2918 c0 -218 2 -228 50 -228 38 0 50 18 50 75 0 85 17 82 90
-11 50 -63 51 -64 100 -64 27 0 51 3 54 8 2 4 -29 51 -70 105 -41 54 -74 102
-74 106 0 5 32 52 70 104 39 52 70 98 70 101 0 3 -22 6 -50 6 -48 0 -51 -2
-90 -52 -66 -85 -69 -88 -84 -88 -12 0 -16 16 -18 68 l-3 67 -47 3 -48 3 0
-203z"/>
<path d="M5538 3114 c-5 -4 -8 -96 -8 -204 0 -165 3 -200 15 -210 11 -9 40
-11 99 -8 104 7 175 41 220 105 70 100 33 242 -79 301 -32 17 -234 30 -247 16z
m173 -104 c19 0 39 -10 55 -25 22 -22 25 -32 22 -82 -3 -53 -6 -59 -37 -80
-37 -25 -90 -30 -109 -11 -7 7 -12 44 -12 98 0 87 10 116 38 105 8 -3 27 -5
43 -5z"/>
</g>
</svg>
